<?xml version="1.0" encoding="UTF-8"?>
<!DOCTYPE svg PUBLIC "-//W3C//DTD SVG 1.1//EN" "http://www.w3.org/Graphics/SVG/1.1/DTD/svg11.dtd">
<svg xmlns="http://www.w3.org/2000/svg" version="1.1" width="600px" height="220px" style="shape-rendering:geometricPrecision; text-rendering:geometricPrecision; image-rendering:optimizeQuality; fill-rule:evenodd; clip-rule:evenodd" xmlns:xlink="http://www.w3.org/1999/xlink">
<g><path style="opacity:0.145" fill="#e0e0e0" d="M 503.5,-0.5 C 503.833,-0.5 504.167,-0.5 504.5,-0.5C 504.167,43.5 503.833,43.5 503.5,-0.5 Z"/></g>
<g><path style="opacity:0.178" fill="#f1f1f1" d="M 323.5,52.5 C 321.752,51.2106 321.419,49.7106 322.5,48C 321.584,47.7216 320.918,47.2216 320.5,46.5C 321.222,46.0825 321.722,45.4158 322,44.5C 322.333,44.8333 322.667,45.1667 323,45.5C 322.956,39.5419 325.79,37.3753 331.5,39C 335.007,44.8175 333.341,47.9842 326.5,48.5C 326.307,52.449 325.807,52.449 325,48.5C 324.79,50.0581 324.29,51.3915 323.5,52.5 Z"/></g>
<g><path style="opacity:0.016" fill="#e7e8e7" d="M 320.5,46.5 C 319.833,45.1667 319.833,45.1667 320.5,46.5 Z"/></g>
<g><path style="opacity:0.122" fill="#f1f1f1" d="M 127.5,63.5 C 122.77,58.066 123.77,53.8993 130.5,51C 131.603,47.5637 133.936,45.5637 137.5,45C 138.392,39.7675 141.392,37.7675 146.5,39C 147.804,39.804 148.471,40.9707 148.5,42.5C 147.231,45.7311 145.065,48.0644 142,49.5C 138.784,53.0496 135.95,56.883 133.5,61C 131.508,61.5743 130.008,62.741 129,64.5C 128.617,63.944 128.117,63.6107 127.5,63.5 Z M 141.5,41.5 C 142.978,41.238 144.311,41.5713 145.5,42.5C 144.833,42.8333 144.167,43.1667 143.5,43.5C 142.287,43.2528 141.62,42.5862 141.5,41.5 Z"/></g>
<g><path style="opacity:0.176" fill="#e4e4e4" d="M 317.5,51.5 C 316.427,50.7494 316.26,49.7494 317,48.5C 317.483,49.448 317.649,50.448 317.5,51.5 Z"/></g>
<g><path style="opacity:0.103" fill="#e5e5e5" d="M 323.5,52.5 C 323.5,52.8333 323.5,53.1667 323.5,53.5C 322.209,53.2627 321.209,53.596 320.5,54.5C 319.596,55.209 319.263,56.209 319.5,57.5C 321.099,57.2322 322.432,57.5655 323.5,58.5C 321.708,58.366 320.042,58.6993 318.5,59.5C 317.811,56.8106 316.144,55.1439 313.5,54.5C 313.389,53.8826 313.056,53.3826 312.5,53C 314.382,52.8019 316.048,52.3019 317.5,51.5C 318.268,50.7375 318.768,49.7375 319,48.5C 319.112,51.4471 320.612,52.7804 323.5,52.5 Z"/></g>
<g><path style="opacity:0.057" fill="#ededed" d="M -0.5,53.5 C -0.5,53.1667 -0.5,52.8333 -0.5,52.5C 15.5,52.8333 15.5,53.1667 -0.5,53.5 Z"/></g>
<g><path style="opacity:0.991" fill="#a7a7a7" d="M 41.5,141.5 C 41.6646,144.518 41.498,147.518 41,150.5C 39.8687,149.396 39.0354,149.729 38.5,151.5C 39.0253,152.192 39.6919,152.692 40.5,153C 39.5775,155.934 38.2441,156.1 36.5,153.5C 37.0431,153.44 37.3764,153.107 37.5,152.5C 36.1667,150.167 34.8333,147.833 33.5,145.5C 27.7191,143.527 22.8858,140.194 19,135.5C 15.1374,129.447 12.1374,123.114 10,116.5C 16.5302,120.098 22.5302,124.432 28,129.5C 28.0505,126.132 27.5505,122.798 26.5,119.5C 21.8062,116.973 18.3062,113.306 16,108.5C 8.02453,85.0361 11.1912,83.3695 25.5,103.5C 26.657,100.216 26.8236,96.8823 26,93.5C 20.4887,88.8046 17.9887,82.8046 18.5,75.5C 18.8755,71.1192 19.5422,66.7859 20.5,62.5C 24.4356,67.3704 27.6023,72.7037 30,78.5C 30.8333,76 31.6667,73.5 32.5,71C 30.5511,67.6636 28.8845,64.1636 27.5,60.5C 28.7533,52.906 30.9199,45.5726 34,38.5C 36.2508,42.9165 37.9175,47.5831 39,52.5C 39.3333,50.8333 39.6667,49.1667 40,47.5C 40.2784,48.4158 40.7784,49.0825 41.5,49.5C 40.5303,38.4094 44.3636,29.0761 53,21.5C 53.4161,27.4371 53.5828,33.1038 53.5,38.5C 55.1487,37.3523 56.6487,36.019 58,34.5C 58.0306,30.2318 59.0306,26.2318 61,22.5C 64.9594,17.1622 69.7927,13.8289 75.5,12.5C 74.4608,16.4516 73.1275,20.2849 71.5,24C 73.4564,23.7782 75.2897,22.9448 77,21.5C 78.0608,18.4384 79.8941,15.9384 82.5,14C 99.268,6.1392 101.268,8.47253 88.5,21C 85.1338,23.1841 81.4672,24.5175 77.5,25C 76.1667,26 74.8333,27 73.5,28C 98.4778,31.7853 98.4778,34.2853 73.5,35.5C 68.4962,33.8831 64.1629,34.7164 60.5,38C 80.7733,36.2605 81.44,38.9272 62.5,46C 58.5796,47.3134 54.5796,48.3134 50.5,49C 49.269,50.1827 49.269,51.3493 50.5,52.5C 54.5784,50.2292 58.9118,49.3959 63.5,50C 56.0041,57.1625 47.6708,63.1625 38.5,68C 36.9123,69.987 36.0789,72.1537 36,74.5C 41.0508,69.9041 46.5508,66.9041 52.5,65.5C 48.8333,70.8333 45.1667,76.1667 41.5,81.5C 37.4454,84.7193 33.9454,88.386 31,92.5C 29.9461,101.255 30.9461,101.588 34,93.5C 37.0418,90.2894 40.2085,87.2894 43.5,84.5C 43.0983,95.8413 38.9316,105.841 31,114.5C 30.4823,118.551 30.8157,122.551 32,126.5C 33.6262,118.914 36.6262,111.914 41,105.5C 41.3333,105.833 41.6667,106.167 42,106.5C 42.7058,114.208 42.3725,121.875 41,129.5C 40.0642,133.207 38.2308,136.374 35.5,139C 36.5218,141.545 37.6884,144.045 39,146.5C 39.3736,144.509 40.207,142.842 41.5,141.5 Z M 41.5,49.5 C 43.9337,50.354 43.767,51.354 41,52.5C 40.5304,51.4232 40.6971,50.4232 41.5,49.5 Z"/></g>
<g><path style="opacity:0.09" fill="#ececec" d="M 71.5,53.5 C 82.3255,52.341 93.3255,52.1743 104.5,53C 93.505,53.4998 82.505,53.6665 71.5,53.5 Z"/></g>
<g><path style="opacity:0.973" fill="#f2f2f2" d="M 599.5,43.5 C 599.5,48.1667 599.5,52.8333 599.5,57.5C 596.13,60.7071 592.63,63.7071 589,66.5C 585.902,65.7333 583.736,63.9 582.5,61C 586.624,56.2033 590.791,51.37 595,46.5C 596.129,44.8588 597.629,43.8588 599.5,43.5 Z"/></g>
<g><path style="opacity:0.993" fill="#a7a7a7" d="M 193.5,147.5 C 193.598,144.752 192.598,144.086 190.5,145.5C 191.086,143.16 192.086,140.993 193.5,139C 190.51,135.372 188.677,131.205 188,126.5C 184.014,100.833 187.014,99.4994 197,122.5C 198.457,119.634 198.79,116.634 198,113.5C 190.915,104.665 186.581,94.6654 185,83.5C 190.379,87.212 194.713,91.8787 198,97.5C 198.584,94.7433 198.25,92.0766 197,89.5C 193.368,86.8702 190.035,83.8702 187,80.5C 184.227,75.3963 181.06,70.563 177.5,66C 183.142,66.7388 187.975,69.2388 192,73.5C 192.458,70.904 191.625,68.7373 189.5,67C 180.943,62.5531 173.276,56.8865 166.5,50C 171.066,49.4624 175.399,50.2958 179.5,52.5C 180.167,52.3333 180.833,52.1667 181.5,52C 180.643,51.3109 179.977,50.4776 179.5,49.5C 169.848,47.6737 160.848,44.1737 152.5,39C 154.702,37.9777 157.035,37.4777 159.5,37.5C 162.527,37.9379 165.527,38.1045 168.5,38C 165.08,34.8314 160.913,33.9981 156,35.5C 149.4,35.3225 142.9,34.4892 136.5,33C 142.099,30.0988 148.099,28.4321 154.5,28C 150.921,25.2457 146.921,23.2457 142.5,22C 138.57,18.578 135.237,14.7447 132.5,10.5C 133.321,6.91841 134.321,6.75174 135.5,10C 144.296,10.9836 150.296,15.4836 153.5,23.5C 155.169,24.8897 156.836,25.2231 158.5,24.5C 156.562,20.6862 155.229,16.6862 154.5,12.5C 161.287,14.8225 166.454,19.1558 170,25.5C 171.369,28.4929 171.703,31.4929 171,34.5C 173,36.5 175,38.5 177,40.5C 176.343,34.2383 176.01,27.905 176,21.5C 184.955,28.4023 188.622,37.4023 187,48.5C 184.226,50.2463 184.726,51.7463 188.5,53C 188.167,53.3333 187.833,53.6667 187.5,54C 188.667,55.8333 189.833,57.6667 191,59.5C 190.239,52.3278 191.905,45.6611 196,39.5C 198.338,45.6814 200.171,52.0147 201.5,58.5C 200.898,63.1503 199.231,67.317 196.5,71C 197.667,74.5 198.833,78 200,81.5C 201.219,74.1359 204.386,67.8026 209.5,62.5C 210.664,69.4763 210.831,76.4763 210,83.5C 209.591,87.9864 207.424,91.3198 203.5,93.5C 202.34,97.4589 202.173,101.459 203,105.5C 219.16,81.4047 222.493,83.0714 213,110.5C 210.173,114.749 206.506,118.082 202,120.5C 201.327,123.521 200.993,126.521 201,129.5C 206.399,124.882 212.232,120.882 218.5,117.5C 216.89,124.08 214.057,130.413 210,136.5C 204.921,141.1 199.421,144.767 193.5,147.5 Z"/></g>
<g><path style="opacity:0.02" fill="#e8e9e8" d="M 323.5,53.5 C 324.833,54.1667 324.833,54.1667 323.5,53.5 Z"/></g>
<g><path style="opacity:0.625" fill="#f2f2f2" d="M 418.5,38.5 C 424.437,37.2723 426.937,39.6057 426,45.5C 421.968,48.7049 418.135,52.0382 414.5,55.5C 411.865,59.6346 408.698,63.3012 405,66.5C 401.5,65.6667 399.333,63.5 398.5,60C 399.448,59.5172 400.448,59.3505 401.5,59.5C 401.961,54.8667 404.461,51.8667 409,50.5C 409.939,47.0602 412.105,44.7269 415.5,43.5C 416.26,41.6396 417.26,39.973 418.5,38.5 Z"/></g>
<g><path style="opacity:1" fill="#181818" d="M 264.5,47.5 C 274.998,46.3692 284.998,48.0359 294.5,52.5C 297.373,58.0664 296.207,62.733 291,66.5C 282.461,58.2137 272.294,55.3804 260.5,58C 251.596,61.047 251.263,65.047 259.5,70C 268.411,74.8578 277.411,79.5244 286.5,84C 294.778,92.4178 295.611,101.584 289,111.5C 287.127,113.709 284.96,115.542 282.5,117C 292.135,121.139 293.969,127.639 288,136.5C 283.743,141.805 280.576,141.139 278.5,134.5C 280.103,131.72 281.937,129.054 284,126.5C 285.141,123.143 283.975,121.143 280.5,120.5C 273.96,121.688 268.793,125.021 265,130.5C 255.051,143.628 251.385,158.295 254,174.5C 255.122,176.624 256.622,178.457 258.5,180C 266.957,176.919 274.457,172.086 281,165.5C 281.692,166.025 282.192,166.692 282.5,167.5C 277.312,174.855 270.979,181.021 263.5,186C 251.796,187.621 244.296,182.788 241,171.5C 238.076,148.889 246.243,131.722 265.5,120C 257.581,118.362 250.247,115.362 243.5,111C 236.107,104.684 235.607,97.8509 242,90.5C 248.484,102.438 258.65,108.438 272.5,108.5C 280.483,109.185 285.816,105.852 288.5,98.5C 287.781,96.2723 286.448,94.439 284.5,93C 273.865,88.234 263.532,82.9007 253.5,77C 246.447,68.1256 247.114,59.7923 255.5,52C 258.592,50.4541 261.592,48.9541 264.5,47.5 Z"/></g>
<g><path style="opacity:0.086" fill="#e7e8e7" d="M 313.5,54.5 C 312.833,55.1667 312.833,55.1667 313.5,54.5 Z"/></g>
<g><path style="opacity:0.059" fill="#eaeaea" d="M 320.5,54.5 C 321.239,54.369 321.906,54.5357 322.5,55C 321.563,55.6917 320.897,55.525 320.5,54.5 Z"/></g>
<g><path style="opacity:0.078" fill="#e7e7e7" d="M 312.5,55.5 C 312.768,57.099 312.434,58.4324 311.5,59.5C 311.232,57.901 311.566,56.5676 312.5,55.5 Z"/></g>
<g><path style="opacity:1" fill="#1b1b1b" d="M 323.5,58.5 C 326.061,58.4469 328.061,59.4469 329.5,61.5C 327.031,65.8007 324.364,69.9674 321.5,74C 324.028,73.8951 326.362,74.0617 328.5,74.5C 328.443,75.609 328.11,76.609 327.5,77.5C 324.946,78.388 322.279,78.7214 319.5,78.5C 318.5,78.8333 317.833,79.5 317.5,80.5C 313.733,88.971 311.066,97.8044 309.5,107C 309.34,109.855 310.673,111.355 313.5,111.5C 317.049,111.744 318.882,110.077 319,106.5C 319.333,107.5 319.667,108.5 320,109.5C 320.893,108.289 321.726,108.289 322.5,109.5C 321.812,110.855 320.812,111.855 319.5,112.5C 318.5,112.833 317.833,113.5 317.5,114.5C 313.458,117.157 309.458,117.157 305.5,114.5C 305.027,113.094 304.027,112.427 302.5,112.5C 300.172,110.834 299.172,108.501 299.5,105.5C 301.229,96.318 303.562,87.318 306.5,78.5C 304.833,78.5 303.167,78.5 301.5,78.5C 301.338,76.4727 301.505,74.4727 302,72.5C 304.401,73.6023 306.901,73.769 309.5,73C 311.573,68.9559 313.573,65.4559 315.5,62.5C 316.272,61.3065 317.272,60.3065 318.5,59.5C 320.042,58.6993 321.708,58.366 323.5,58.5 Z"/></g>
<g><path style="opacity:0.063" fill="#e6e7e6" d="M 122.5,60.5 C 121.833,59.1667 121.833,59.1667 122.5,60.5 Z"/></g>
<g><path style="opacity:0.004" fill="#e9eae9" d="M 311.5,59.5 C 311.5,59.8333 311.5,60.1667 311.5,60.5C 310.83,60.0187 310.83,59.6853 311.5,59.5 Z"/></g>
<g><path style="opacity:0.067" fill="#e6e7e6" d="M 492.5,60.5 C 491.833,59.1667 491.833,59.1667 492.5,60.5 Z"/></g>
<g><path style="opacity:0.137" fill="#efefef" d="M 492.5,60.5 C 494.084,58.4714 495.417,56.1381 496.5,53.5C 497.748,52.9598 498.915,52.2931 500,51.5C 500.333,51.8333 500.667,52.1667 501,52.5C 501.092,48.2873 503.092,45.6206 507,44.5C 507.333,44.8333 507.667,45.1667 508,45.5C 507.956,39.5419 510.79,37.3753 516.5,39C 520.298,45.0442 518.632,48.2109 511.5,48.5C 511.5,53.1667 509.167,55.5 504.5,55.5C 504.643,57.2624 504.309,58.9291 503.5,60.5C 501.003,61.5781 499.337,63.4115 498.5,66C 495.208,66.8958 492.875,65.7291 491.5,62.5C 491.863,61.8165 492.196,61.1499 492.5,60.5 Z M 498.5,55.5 C 499.5,55.5 500.5,55.5 501.5,55.5C 501.426,59.5412 500.093,60.2079 497.5,57.5C 497.863,56.8165 498.196,56.1499 498.5,55.5 Z M 506.5,51.5 C 504.141,50.6113 503.975,49.278 506,47.5C 506.49,48.7932 506.657,50.1266 506.5,51.5 Z M 512.5,41.5 C 513.376,41.3691 514.043,41.7025 514.5,42.5C 512.192,43.8734 511.525,43.5401 512.5,41.5 Z"/></g>
<g><path style="opacity:0.137" fill="#e1e2e1" d="M 122.5,60.5 C 123.167,60.5 123.5,60.8333 123.5,61.5C 123.167,61.1667 122.833,60.8333 122.5,60.5 Z"/></g>
<g><path style="opacity:0.008" fill="#e7e8e7" d="M 311.5,60.5 C 312.833,61.1667 312.833,61.1667 311.5,60.5 Z"/></g>
<g><path style="opacity:0.106" fill="#e2e3e2" d="M 123.5,61.5 C 124.167,61.5 124.5,61.8333 124.5,62.5C 124.167,62.1667 123.833,61.8333 123.5,61.5 Z"/></g>
<g><path style="opacity:0.01" fill="#ebebeb" d="M 315.5,62.5 C 314.761,62.631 314.094,62.4643 313.5,62C 314.437,61.3083 315.103,61.475 315.5,62.5 Z"/></g>
<g><path style="opacity:0.055" fill="#e5e6e5" d="M 124.5,62.5 C 125.167,62.5 125.5,62.8333 125.5,63.5C 125.167,63.1667 124.833,62.8333 124.5,62.5 Z"/></g>
<g><path style="opacity:0.369" fill="#f2f2f2" d="M 233.5,38.5 C 240.093,37.9076 242.26,40.5743 240,46.5C 238.758,47.8721 237.258,48.8721 235.5,49.5C 234.306,52.86 231.972,55.0266 228.5,56C 226.394,60.1039 223.561,63.6039 220,66.5C 217.015,65.7454 214.515,63.7454 212.5,60.5C 213.651,59.269 214.817,59.269 216,60.5C 217.688,59.6753 217.855,58.6753 216.5,57.5C 217.867,53.9669 220.367,51.6336 224,50.5C 227.519,46.8118 230.685,42.8118 233.5,38.5 Z"/></g>
<g><path style="opacity:0.11" fill="#dedede" d="M 125.5,63.5 C 126.167,63.5 126.833,63.5 127.5,63.5C 126.833,64.8333 126.167,64.8333 125.5,63.5 Z"/></g>
<g><path style="opacity:0.998" fill="#181818" d="M 163.5,95.5 C 162.506,105.319 162.173,115.319 162.5,125.5C 161.5,125.5 160.5,125.5 159.5,125.5C 159.828,114.321 159.495,103.321 158.5,92.5C 152.496,89.8308 146.496,87.1642 140.5,84.5C 140.44,83.9569 140.107,83.6236 139.5,83.5C 138.501,97.1504 138.167,110.817 138.5,124.5C 138.389,125.117 138.056,125.617 137.5,126C 134.571,126.777 131.737,126.61 129,125.5C 128.667,108.167 128.333,90.8333 128,73.5C 120.454,77.0227 112.954,80.6894 105.5,84.5C 104.833,98.1667 104.167,111.833 103.5,125.5C 100.301,126.799 97.1347,126.799 94,125.5C 93.8321,115.816 93.3321,106.149 92.5,96.5C 86.0456,99.227 79.7122,102.227 73.5,105.5C 72.5033,112.134 72.17,118.8 72.5,125.5C 71.1667,125.5 69.8333,125.5 68.5,125.5C 68.8222,119.642 68.4889,113.975 67.5,108.5C 64.8599,109.82 62.1932,111.153 59.5,112.5C 57.6671,111.032 57.3338,109.365 58.5,107.5C 70.1667,101.667 81.8333,95.8333 93.5,90C 94.8333,89.3333 96.1667,89.3333 97.5,90C 98.3211,100.423 98.8211,110.923 99,121.5C 99.3333,108.167 99.6667,94.8333 100,81.5C 110.193,76.5995 120.359,71.5995 130.5,66.5C 131.478,66.9767 132.311,67.6433 133,68.5C 133.333,86.1667 133.667,103.833 134,121.5C 134.5,106.837 134.667,92.1705 134.5,77.5C 136.199,77.3398 137.866,77.5065 139.5,78C 151.323,83.7447 162.99,89.7447 174.5,96C 173.845,97.4866 172.845,98.6533 171.5,99.5C 168.807,98.1534 166.14,96.8201 163.5,95.5 Z"/></g>
<g><path style="opacity:1" fill="#1c1c1c" d="M 362.5,144.5 C 359.073,146.177 356.073,145.844 353.5,143.5C 356.668,132.663 361.335,122.496 367.5,113C 366.106,112.044 365.439,110.711 365.5,109C 368.411,95.5992 372.911,82.7659 379,70.5C 383.306,69.3921 386.806,70.7254 389.5,74.5C 386.268,77.9564 384.435,81.9564 384,86.5C 388.534,82.3006 392.701,77.8006 396.5,73C 398.473,72.5045 400.473,72.3379 402.5,72.5C 401.422,77.6845 401.422,82.8511 402.5,88C 401.527,90.1199 400.194,91.9532 398.5,93.5C 394.869,91.9125 392.369,89.2458 391,85.5C 382.333,91.5061 376.833,99.6728 374.5,110C 376.641,111.308 378.641,112.808 380.5,114.5C 373.482,123.865 367.482,133.865 362.5,144.5 Z"/></g>
<g><path style="opacity:1" fill="#1d1d1d" d="M 413.5,101.5 C 411.656,103.279 410.99,105.612 411.5,108.5C 411.795,110.735 411.461,112.735 410.5,114.5C 404.859,112.338 402.192,108.172 402.5,102C 403.16,89.6928 408.493,80.0261 418.5,73C 433.347,67.8474 438.181,72.6807 433,87.5C 428.045,94.2843 421.545,98.9509 413.5,101.5 Z M 426.5,79.5 C 427.833,79.5 428.5,80.1667 428.5,81.5C 425.635,88.536 420.801,93.8693 414,97.5C 415.59,89.7381 419.757,83.7381 426.5,79.5 Z"/></g>
<g><path style="opacity:0.18" fill="#949494" d="M 328.5,74.5 C 329.885,75.9473 329.552,76.9473 327.5,77.5C 328.11,76.609 328.443,75.609 328.5,74.5 Z"/></g>
<g><path style="opacity:0.04" fill="#dedede" d="M 319.5,78.5 C 319.66,80.1992 319.494,81.8659 319,83.5C 318.768,82.2625 318.268,81.2625 317.5,80.5C 317.833,79.5 318.5,78.8333 319.5,78.5 Z"/></g>
<g><path style="opacity:0.349" fill="#919191" d="M 426.5,79.5 C 427.209,78.596 428.209,78.2627 429.5,78.5C 429.737,79.791 429.404,80.791 428.5,81.5C 428.5,80.1667 427.833,79.5 426.5,79.5 Z"/></g>
<g><path style="opacity:0.405" fill="#818181" d="M 140.5,84.5 C 139.833,97.8333 139.167,111.167 138.5,124.5C 138.167,110.817 138.501,97.1504 139.5,83.5C 140.107,83.6236 140.44,83.9569 140.5,84.5 Z"/></g>
<g><path style="opacity:0.691" fill="#444444" d="M 158.5,92.5 C 159.495,103.321 159.828,114.321 159.5,125.5C 160.5,125.5 161.5,125.5 162.5,125.5C 162.173,115.319 162.506,105.319 163.5,95.5C 163.5,105.833 163.5,116.167 163.5,126.5C 161.833,126.5 160.167,126.5 158.5,126.5C 158.5,115.167 158.5,103.833 158.5,92.5 Z"/></g>
<g><path style="opacity:0.999" fill="#3a3a3a" d="M 410.5,114.5 C 411.461,112.735 411.795,110.735 411.5,108.5C 411.833,108.5 412.167,108.5 412.5,108.5C 413.315,109.837 414.482,110.837 416,111.5C 422.47,109.59 427.803,105.923 432,100.5C 432.692,101.025 433.192,101.692 433.5,102.5C 429.385,109.561 423.385,114.228 415.5,116.5C 413.578,116.199 411.912,115.533 410.5,114.5 Z"/></g>
<g><path style="opacity:0.075" fill="#cbcbcb" d="M 413.5,101.5 C 412.631,103.717 412.298,106.05 412.5,108.5C 412.167,108.5 411.833,108.5 411.5,108.5C 410.99,105.612 411.656,103.279 413.5,101.5 Z"/></g>
<g><path style="opacity:0.399" fill="#818181" d="M 67.5,108.5 C 68.4889,113.975 68.8222,119.642 68.5,125.5C 69.8333,125.5 71.1667,125.5 72.5,125.5C 71.0813,126.451 69.4147,126.784 67.5,126.5C 67.5,120.5 67.5,114.5 67.5,108.5 Z"/></g>
<g><path style="opacity:1" fill="#1c1c1c" d="M 346.5,114.5 C 348.085,113.998 348.585,112.998 348,111.5C 347.005,112.066 346.172,112.733 345.5,113.5C 336.713,117.526 330.879,114.859 328,105.5C 327.207,90.2526 333.373,78.7526 346.5,71C 351.752,69.2668 355.419,70.9335 357.5,76C 362.932,76.7778 364.932,79.9445 363.5,85.5C 363.711,95.2409 360.044,103.074 352.5,109C 355.341,110.586 358.007,112.42 360.5,114.5C 344.235,135.373 334.902,159.04 332.5,185.5C 329.737,185.256 327.571,183.923 326,181.5C 324.566,177.594 324.233,173.594 325,169.5C 329.527,150.077 336.694,131.744 346.5,114.5 Z M 353.5,79.5 C 354.5,79.5 355.5,79.5 356.5,79.5C 358.162,94.5257 352.328,105.192 339,111.5C 336.035,106.623 336.035,101.623 339,96.5C 341.914,89.0945 346.747,83.4278 353.5,79.5 Z"/></g>
<g><path style="opacity:0.494" fill="#989898" d="M 346.5,114.5 C 346.5,113.833 346.167,113.5 345.5,113.5C 346.172,112.733 347.005,112.066 348,111.5C 348.585,112.998 348.085,113.998 346.5,114.5 Z"/></g>
<g><path style="opacity:0.518" fill="#838383" d="M 302.5,112.5 C 304.027,112.427 305.027,113.094 305.5,114.5C 303.973,114.573 302.973,113.906 302.5,112.5 Z"/></g>
<g><path style="opacity:0.043" fill="#d0d0d0" d="M 319.5,112.5 C 319.869,114.993 319.203,115.66 317.5,114.5C 317.833,113.5 318.5,112.833 319.5,112.5 Z"/></g>
<g><path style="opacity:1" fill="#272727" d="M 481.5,122.5 C 486.361,122.43 490.361,124.263 493.5,128C 481.4,145.767 477.4,143.933 481.5,122.5 Z"/></g>
<g><path style="opacity:0.02" fill="#eaeaea" d="M 515.5,131.5 C 511.5,131.833 511.5,132.167 515.5,132.5C 515.5,132.833 515.5,133.167 515.5,133.5C 512.612,133.22 511.112,134.553 511,137.5C 510.833,136.833 510.667,136.167 510.5,135.5C 511.423,133.871 511.757,132.371 511.5,131C 513.066,130.235 514.399,130.402 515.5,131.5 Z"/></g>
<g><path style="opacity:0.035" fill="#ededed" d="M 515.5,132.5 C 515.5,132.167 515.5,131.833 515.5,131.5C 516.833,131.5 517.5,132.167 517.5,133.5C 517.167,133.5 516.833,133.5 516.5,133.5C 516.5,132.833 516.167,132.5 515.5,132.5 Z"/></g>
<g><path style="opacity:0.051" fill="#d8d9d8" d="M 239.5,132.5 C 240.833,133.167 240.833,133.167 239.5,132.5 Z"/></g>
<g><path style="opacity:0.039" fill="#d8d9d8" d="M 419.5,132.5 C 420.833,133.167 420.833,133.167 419.5,132.5 Z"/></g>
<g><path style="opacity:0.024" fill="#dadbda" d="M 421.5,132.5 C 422.833,133.167 422.833,133.167 421.5,132.5 Z"/></g>
<g><path style="opacity:0.004" fill="#ebeceb" d="M 238.5,134.5 C 239.833,135.167 239.833,135.167 238.5,134.5 Z"/></g>
<g><path style="opacity:0.084" fill="#e8e8e8" d="M 517.5,133.5 C 518.833,135.167 518.833,136.833 517.5,138.5C 517.5,136.833 517.5,135.167 517.5,133.5 Z"/></g>
<g><path style="opacity:0.016" fill="#e9eae9" d="M 417.5,135.5 C 418.833,136.167 418.833,136.167 417.5,135.5 Z"/></g>
<g><path style="opacity:0.049" fill="#ececec" d="M 515.5,133.5 C 515.833,133.5 516.167,133.5 516.5,133.5C 516.5,135.167 516.5,136.833 516.5,138.5C 515.761,138.631 515.094,138.464 514.5,138C 515.38,136.644 515.714,135.144 515.5,133.5 Z"/></g>
<g><path style="opacity:1" fill="#1d1d1d" d="M 593.5,140.5 C 593.833,141.5 594.5,142.167 595.5,142.5C 596.579,146.135 596.579,149.801 595.5,153.5C 595.167,154.5 594.5,155.167 593.5,155.5C 592.167,155.5 591.5,154.833 591.5,153.5C 592.218,151.863 592.384,150.197 592,148.5C 591.23,147.402 590.397,147.402 589.5,148.5C 589.5,147.833 589.167,147.5 588.5,147.5C 587.5,147.833 586.833,148.5 586.5,149.5C 586.443,150.609 586.11,151.609 585.5,152.5C 584.074,154.679 583.408,157.179 583.5,160C 583.508,161.707 583.842,163.207 584.5,164.5C 592.297,165.051 592.297,166.051 584.5,167.5C 585.993,179.135 581.16,186.135 570,188.5C 563.079,187.767 560.246,184.1 561.5,177.5C 562.338,177.158 562.672,176.492 562.5,175.5C 565.567,168.629 570.9,165.296 578.5,165.5C 577.63,160.486 576.63,155.486 575.5,150.5C 575.98,142.853 579.813,137.853 587,135.5C 589.669,136.577 591.836,138.243 593.5,140.5 Z M 591.5,153.5 C 590.833,153.5 590.167,153.5 589.5,153.5C 589.5,152.833 589.167,152.5 588.5,152.5C 588.833,151.167 589.167,149.833 589.5,148.5C 590.397,147.402 591.23,147.402 592,148.5C 592.384,150.197 592.218,151.863 591.5,153.5 Z M 570.5,183.5 C 569.391,183.443 568.391,183.11 567.5,182.5C 568.992,177.005 572.325,173.005 577.5,170.5C 577.586,175.988 575.252,180.322 570.5,183.5 Z"/></g>
<g><path style="opacity:0.063" fill="#e2e3e2" d="M 418.5,137.5 C 419.833,138.167 419.833,138.167 418.5,137.5 Z"/></g>
<g><path style="opacity:0.021" fill="#ebebeb" d="M 425.5,139.5 C 424.833,139.5 424.167,139.5 423.5,139.5C 424.548,137.067 425.214,137.067 425.5,139.5 Z"/></g>
<g><path style="opacity:0.122" fill="#dddddd" d="M 504.5,138.5 C 505.251,137.427 506.251,137.26 507.5,138C 506.552,138.483 505.552,138.649 504.5,138.5 Z"/></g>
<g><path style="opacity:0.106" fill="#f0f0f0" d="M 239.5,132.5 C 238.662,132.842 238.328,133.508 238.5,134.5C 236.442,133.176 234.775,133.676 233.5,136C 234.051,137.398 234.384,138.732 234.5,140C 233.353,142.488 231.686,144.488 229.5,146C 229.833,146.333 230.167,146.667 230.5,147C 229.552,147.483 228.552,147.649 227.5,147.5C 226.212,151.958 223.879,155.791 220.5,159C 216.434,159.109 214.767,157.276 215.5,153.5C 217.814,152.821 218.147,151.488 216.5,149.5C 216.997,146.45 218.497,145.45 221,146.5C 223.463,144.299 225.297,141.633 226.5,138.5C 227.736,137.754 229.07,137.421 230.5,137.5C 231.301,131.271 234.301,129.604 239.5,132.5 Z M 220.5,149.5 C 222.337,149.639 222.67,150.306 221.5,151.5C 220.702,151.043 220.369,150.376 220.5,149.5 Z"/></g>
<g><path style="opacity:0.082" fill="#dedede" d="M 414.5,139.5 C 414.082,138.778 413.416,138.278 412.5,138C 413.635,137.251 414.635,137.417 415.5,138.5C 415.376,139.107 415.043,139.44 414.5,139.5 Z"/></g>
<g><path style="opacity:0.012" fill="#e2e2e2" d="M 418.5,138.5 C 418.5,138.833 418.5,139.167 418.5,139.5C 418.158,140.338 417.492,140.672 416.5,140.5C 416.131,138.007 416.797,137.34 418.5,138.5 Z"/></g>
<g><path style="opacity:0.063" fill="#e6e7e6" d="M 516.5,138.5 C 516.833,138.5 517.167,138.5 517.5,138.5C 517.315,139.17 516.981,139.17 516.5,138.5 Z"/></g>
<g><path style="opacity:0.02" fill="#e8e8e8" d="M 412.5,140.5 C 412.842,139.662 413.508,139.328 414.5,139.5C 414.5,139.833 414.5,140.167 414.5,140.5C 413.833,140.5 413.167,140.5 412.5,140.5 Z"/></g>
<g><path style="opacity:0.569" fill="#a2a2a2" d="M 504.5,138.5 C 504.5,138.833 504.5,139.167 504.5,139.5C 503.791,140.404 502.791,140.737 501.5,140.5C 502.29,139.599 503.29,138.932 504.5,138.5 Z"/></g>
<g><path style="opacity:0.031" fill="#ebebeb" d="M 516.5,139.5 C 516.103,140.525 515.437,140.692 514.5,140C 515.094,139.536 515.761,139.369 516.5,139.5 Z"/></g>
<g><path style="opacity:0.004" fill="#e6e7e6" d="M 597.5,139.5 C 598.833,140.167 598.833,140.167 597.5,139.5 Z"/></g>
<g><path style="opacity:1" fill="#1c1c1c" d="M 305.5,139.5 C 307.527,139.338 309.527,139.505 311.5,140C 313.199,143.705 316.033,145.872 320,146.5C 323.232,163.202 317.065,175.036 301.5,182C 292.038,182.714 287.038,178.214 286.5,168.5C 288.131,155.528 294.464,145.861 305.5,139.5 Z M 312.5,147.5 C 316.026,158.458 313.026,167.958 303.5,176C 301.35,177.411 299.016,178.245 296.5,178.5C 295.201,164.765 300.534,154.432 312.5,147.5 Z"/></g>
<g><path style="opacity:0.082" fill="#dedfde" d="M 412.5,140.5 C 411.833,141.167 411.833,141.167 412.5,140.5 Z"/></g>
<g><path style="opacity:1" fill="#202020" d="M 418.5,139.5 C 420.167,139.5 421.833,139.5 423.5,139.5C 424.167,139.5 424.833,139.5 425.5,139.5C 430.521,140 433.187,142.834 433.5,148C 433.166,151.987 431.5,155.32 428.5,158C 425.962,158.867 423.962,158.201 422.5,156C 425.397,152.705 427.064,148.872 427.5,144.5C 421.471,145.686 416.971,149.02 414,154.5C 409.817,161.545 408.984,168.878 411.5,176.5C 411.5,177.833 411.5,179.167 411.5,180.5C 410.5,180.5 409.5,180.5 408.5,180.5C 403.973,177.806 401.139,173.806 400,168.5C 399.352,163.686 399.852,159.019 401.5,154.5C 402.167,154.5 402.5,154.167 402.5,153.5C 403.488,152.205 404.488,150.872 405.5,149.5C 405.5,149.167 405.5,148.833 405.5,148.5C 406.5,148.167 407.167,147.5 407.5,146.5C 408.5,146.167 409.167,145.5 409.5,144.5C 411.349,143.407 413.016,142.074 414.5,140.5C 415.167,140.5 415.833,140.5 416.5,140.5C 417.492,140.672 418.158,140.338 418.5,139.5 Z"/></g>
<g><path style="opacity:0.047" fill="#dfdfdf" d="M 593.5,140.5 C 594.833,140.5 595.5,141.167 595.5,142.5C 594.5,142.167 593.833,141.5 593.5,140.5 Z"/></g>
<g><path style="opacity:0.059" fill="#dedfde" d="M 597.5,140.5 C 596.833,141.167 596.833,141.167 597.5,140.5 Z"/></g>
<g><path style="opacity:0.012" fill="#eaeaea" d="M 409.5,140.5 C 410.525,140.897 410.692,141.563 410,142.5C 409.536,141.906 409.369,141.239 409.5,140.5 Z"/></g>
<g><path style="opacity:0.037" fill="#dfdfdf" d="M 511.5,144.5 C 510.662,144.158 510.328,143.492 510.5,142.5C 510.539,140.776 510.206,140.443 509.5,141.5C 508.5,141.167 507.833,140.5 507.5,139.5C 508.496,139.586 509.329,139.252 510,138.5C 510.75,139.126 511.584,139.626 512.5,140C 511.62,141.356 511.286,142.856 511.5,144.5 Z"/></g>
<g><path style="opacity:0.01" fill="#f5f5f5" d="M -0.5,144.5 C 0.833333,145.167 0.833333,145.833 -0.5,146.5C -0.5,145.833 -0.5,145.167 -0.5,144.5 Z"/></g>
<g><path style="opacity:0.022" fill="#e9e9e9" d="M 409.5,144.5 C 409.167,145.5 408.5,146.167 407.5,146.5C 406.34,144.797 407.007,144.131 409.5,144.5 Z"/></g>
<g><path style="opacity:0.985" fill="#a5a5a5" d="M 49.5,132.5 C 48.1667,132.833 48.1667,133.167 49.5,133.5C 48.1667,135.167 48.1667,136.833 49.5,138.5C 50.5,138.5 51.5,138.5 52.5,138.5C 51.828,139.267 50.9947,139.934 50,140.5C 49.7185,144.162 49.8852,147.829 50.5,151.5C 50.4663,154.967 49.7997,158.3 48.5,161.5C 50.3333,163.833 52.1667,166.167 54,168.5C 53.2899,161.86 53.4566,155.194 54.5,148.5C 60.4047,156.644 64.4047,165.644 66.5,175.5C 65.238,177.82 65.9047,179.654 68.5,181C 70.0548,182.289 71.7215,182.956 73.5,183C 70.0372,177.648 68.5372,171.815 69,165.5C 73.0541,169.554 77.0541,173.554 81,177.5C 84.1749,181.493 86.6749,185.826 88.5,190.5C 90.7354,191.752 93.0687,192.252 95.5,192C 90.5305,188.523 87.8639,184.023 87.5,178.5C 92.5,180.667 97.5,182.833 102.5,185C 105.4,187.397 107.733,190.23 109.5,193.5C 113.107,194.489 116.774,194.823 120.5,194.5C 121.47,191.339 123.137,188.506 125.5,186C 128.625,184.527 131.459,182.693 134,180.5C 134.414,180.957 134.914,181.291 135.5,181.5C 137.972,179.749 140.639,178.915 143.5,179C 141.498,183.996 138.498,188.33 134.5,192C 137.112,191.641 139.779,191.141 142.5,190.5C 142.799,186.895 143.965,183.561 146,180.5C 150.5,176 155,171.5 159.5,167C 160.483,166.409 161.15,166.743 161.5,168C 160.73,173.143 159.063,177.977 156.5,182.5C 156.667,182.833 156.833,183.167 157,183.5C 158.815,181.595 160.815,179.928 163,178.5C 163.481,174.469 164.147,170.469 165,166.5C 168.333,160.5 171.667,154.5 175,148.5C 176.665,154.464 176.998,160.464 176,166.5C 177.333,165.167 178.667,163.833 180,162.5C 178.64,150.552 179.974,138.885 184,127.5C 186.364,133.623 188.53,139.623 190.5,145.5C 192.598,144.086 193.598,144.752 193.5,147.5C 192.828,150.342 191.494,152.842 189.5,155C 189.833,155.167 190.167,155.333 190.5,155.5C 197,151.051 204.167,148.051 212,146.5C 213.257,146.85 213.591,147.517 213,148.5C 207.744,155.758 201.244,161.591 193.5,166C 189.251,167.126 184.918,167.792 180.5,168C 177.833,170.667 175.167,173.333 172.5,176C 178.7,174.747 185.033,173.914 191.5,173.5C 193.833,173.833 196.167,174.167 198.5,174.5C 190.787,181.526 181.787,185.526 171.5,186.5C 168.076,186.705 164.909,186.039 162,184.5C 157.896,186.802 153.73,188.968 149.5,191C 159.082,191.097 168.416,192.597 177.5,195.5C 168.38,200.097 158.714,201.597 148.5,200C 145.241,198.789 142.408,196.956 140,194.5C 138.559,195.26 137.059,195.926 135.5,196.5C 134.167,197.5 134.167,198.5 135.5,199.5C 141.199,202.681 146.865,205.847 152.5,209C 143.958,209.724 135.625,208.724 127.5,206C 124.268,204.77 121.601,202.77 119.5,200C 117.966,199.077 116.299,198.577 114.5,198.5C 109.696,202.072 104.362,204.906 98.5,207C 91.6024,208.891 84.6024,209.557 77.5,209C 84.0583,204.554 91.0583,200.887 98.5,198C 95.9382,196.859 93.2716,196.026 90.5,195.5C 87.5052,196.997 84.5052,198.497 81.5,200C 71.0155,201.555 61.0155,200.055 51.5,195.5C 60.287,192.776 69.287,191.276 78.5,191C 74.4234,189.213 70.59,187.046 67,184.5C 58.202,187.591 49.702,186.758 41.5,182C 37.6562,179.578 33.9895,176.911 30.5,174C 31.7659,173.691 32.9326,173.191 34,172.5C 41.5797,173.487 49.0797,174.654 56.5,176C 53.8333,173.333 51.1667,170.667 48.5,168C 37.9631,167.982 29.4631,163.815 23,155.5C 20.8333,152.667 18.6667,149.833 16.5,147C 24.0141,147.784 30.6808,149.951 36.5,153.5C 38.2441,156.1 39.5775,155.934 40.5,153C 39.6919,152.692 39.0253,152.192 38.5,151.5C 39.0354,149.729 39.8687,149.396 41,150.5C 41.498,147.518 41.6646,144.518 41.5,141.5C 41.9085,136.527 43.2418,131.86 45.5,127.5C 46.4287,128.689 46.762,130.022 46.5,131.5C 47.791,131.263 48.791,131.596 49.5,132.5 Z M 49.5,133.5 C 52.5,133.167 53.8333,134.5 53.5,137.5C 52.8333,137.5 52.5,137.833 52.5,138.5C 51.5,138.5 50.5,138.5 49.5,138.5C 48.1667,136.833 48.1667,135.167 49.5,133.5 Z M 128.5,147.5 C 130.532,148.048 131.532,149.381 131.5,151.5C 130.167,151.5 128.833,151.5 127.5,151.5C 127.433,150.041 127.766,148.708 128.5,147.5 Z M 124.5,156.5 C 126.099,156.232 127.432,156.566 128.5,157.5C 126.737,158.954 125.403,158.62 124.5,156.5 Z M 131.5,196.5 C 132.376,196.369 133.043,196.702 133.5,197.5C 131.192,198.873 130.525,198.54 131.5,196.5 Z"/></g>
<g><path style="opacity:0.012" fill="#ecedec" d="M 54.5,138.5 C 53.8333,139.167 53.8333,139.167 54.5,138.5 Z"/></g>
<g><path style="opacity:0.047" fill="#e7e8e7" d="M 54.5,137.5 C 55.8333,138.167 55.8333,138.167 54.5,137.5 Z"/></g>
<g><path style="opacity:0.01" fill="#efefef" d="M 55.5,134.5 C 56.525,134.897 56.6917,135.563 56,136.5C 55.5357,135.906 55.369,135.239 55.5,134.5 Z"/></g>
<g><path style="opacity:0.075" fill="#ebebeb" d="M 55.5,134.5 C 54.596,135.209 54.2627,136.209 54.5,137.5C 54.1667,137.5 53.8333,137.5 53.5,137.5C 53.8333,134.5 52.5,133.167 49.5,133.5C 49.5,133.167 49.5,132.833 49.5,132.5C 50.9305,132.579 52.2638,132.246 53.5,131.5C 54.9185,132.005 55.5852,133.005 55.5,134.5 Z"/></g>
<g><path style="opacity:0.035" fill="#e1e1e1" d="M 142.5,131.5 C 142.897,130.475 143.563,130.308 144.5,131C 143.906,131.464 143.239,131.631 142.5,131.5 Z"/></g>
<g><path style="opacity:0.981" fill="#4e4e4e" d="M 353.5,143.5 C 356.073,145.844 359.073,146.177 362.5,144.5C 362.204,146.403 361.537,148.07 360.5,149.5C 360.5,148.5 360.5,147.5 360.5,146.5C 357.391,146.264 354.391,146.597 351.5,147.5C 351.66,145.847 352.326,144.514 353.5,143.5 Z"/></g>
<g><path style="opacity:0.008" fill="#e8e9e8" d="M 405.5,146.5 C 404.833,145.167 404.833,145.167 405.5,146.5 Z"/></g>
<g><path style="opacity:0.998" fill="#5f5f5f" d="M 479.5,146.5 C 477.05,146.298 474.717,146.631 472.5,147.5C 474.347,143.999 476.68,143.665 479.5,146.5 Z"/></g>
<g><path style="opacity:1" fill="#212121" d="M 504.5,139.5 C 505.5,139.5 506.5,139.5 507.5,139.5C 507.833,140.5 508.5,141.167 509.5,141.5C 509.5,142.167 509.833,142.5 510.5,142.5C 510.328,143.492 510.662,144.158 511.5,144.5C 516.439,145.345 518.772,148.345 518.5,153.5C 517.444,167.603 510.777,177.103 498.5,182C 492.419,183.858 487.919,182.025 485,176.5C 482.375,165.695 484.708,156.028 492,147.5C 494.501,144.152 497.668,141.818 501.5,140.5C 502.791,140.737 503.791,140.404 504.5,139.5 Z M 497.5,158.5 C 498.906,158.027 499.573,157.027 499.5,155.5C 500.167,155.5 500.5,155.167 500.5,154.5C 502.833,154.167 504.167,152.833 504.5,150.5C 506.386,149.639 508.22,148.639 510,147.5C 512.44,158.846 509.273,168.346 500.5,176C 493.456,179.876 490.956,177.709 493,169.5C 493.957,165.59 495.457,161.923 497.5,158.5 Z"/></g>
<g><path style="opacity:0.194" fill="#f0f0f0" d="M 128.5,157.5 C 127.432,156.566 126.099,156.232 124.5,156.5C 124.369,155.761 124.536,155.094 125,154.5C 125.718,155.451 126.551,155.617 127.5,155C 126.177,154.184 125.511,153.017 125.5,151.5C 126.29,150.391 126.79,149.058 127,147.5C 127.75,146.874 128.584,146.374 129.5,146C 129.167,145.667 128.833,145.333 128.5,145C 129.448,144.517 130.448,144.351 131.5,144.5C 131.545,139.788 133.878,137.455 138.5,137.5C 138.351,136.448 138.517,135.448 139,134.5C 139.333,134.833 139.667,135.167 140,135.5C 141.786,132.098 144.286,131.598 147.5,134C 148.022,134.561 148.355,135.228 148.5,136C 145.491,139 142.491,142 139.5,145C 138.1,146.438 136.433,147.271 134.5,147.5C 134.762,148.978 134.429,150.311 133.5,151.5C 131.426,153.234 129.759,155.234 128.5,157.5 Z M 128.5,147.5 C 127.766,148.708 127.433,150.041 127.5,151.5C 128.833,151.5 130.167,151.5 131.5,151.5C 131.532,149.381 130.532,148.048 128.5,147.5 Z"/></g>
<g><path style="opacity:1" fill="#1c1c1c" d="M 360.5,149.5 C 355.938,161.082 353.271,173.082 352.5,185.5C 346.822,184.14 344.155,180.473 344.5,174.5C 345.431,165.11 347.764,156.11 351.5,147.5C 354.391,146.597 357.391,146.264 360.5,146.5C 360.5,147.5 360.5,148.5 360.5,149.5 Z"/></g>
<g><path style="opacity:1" fill="#232323" d="M 382.5,139.5 C 396.15,139.465 399.317,145.465 392,157.5C 387.128,162.867 381.295,166.867 374.5,169.5C 372.638,173.405 373.472,176.405 377,178.5C 382.944,175.685 388.444,172.352 393.5,168.5C 390.09,175.902 384.423,180.902 376.5,183.5C 368.478,181.978 364.145,177.145 363.5,169C 365.255,156.104 371.588,146.271 382.5,139.5 Z M 376.5,164.5 C 375.508,164.672 374.842,164.338 374.5,163.5C 377.37,156.739 381.87,151.406 388,147.5C 388.552,150.419 387.885,153.086 386,155.5C 382.938,158.732 379.771,161.732 376.5,164.5 Z"/></g>
<g><path style="opacity:1" fill="#1f1f1f" d="M 455.5,127.5 C 458.877,127.959 462.211,128.626 465.5,129.5C 463.868,133.988 461.535,138.155 458.5,142C 460.81,142.497 463.143,142.663 465.5,142.5C 465.67,143.822 465.337,144.989 464.5,146C 461.5,146.333 458.5,146.667 455.5,147C 450.01,156.464 447.177,166.631 447,177.5C 447.667,178.167 448.333,178.833 449,179.5C 452.225,178.722 455.225,177.388 458,175.5C 458.167,176 458.333,176.5 458.5,177C 453.818,183.864 447.818,185.198 440.5,181C 436.06,176.524 435.226,171.357 438,165.5C 439.533,159.735 441.366,154.068 443.5,148.5C 439.15,148.122 437.483,145.789 438.5,141.5C 441.244,142.205 443.911,142.205 446.5,141.5C 449.511,136.805 452.511,132.138 455.5,127.5 Z"/></g>
<g><path style="opacity:1" fill="#1b1b1b" d="M 479.5,146.5 C 481.478,147.144 482.811,148.478 483.5,150.5C 477.527,160.087 473.527,170.42 471.5,181.5C 466.086,181.039 463.753,178.039 464.5,172.5C 465.088,166.391 466.255,160.391 468,154.5C 469.026,151.761 470.526,149.428 472.5,147.5C 474.717,146.631 477.05,146.298 479.5,146.5 Z"/></g>
<g><path style="opacity:1" fill="#1e1e1e" d="M 560.5,175.5 C 560.5,176.167 560.5,176.833 560.5,177.5C 556.292,180.979 551.792,181.312 547,178.5C 545.978,176.298 545.478,173.965 545.5,171.5C 546.261,166.748 547.095,162.081 548,157.5C 543.667,161.833 539.333,166.167 535,170.5C 531.715,175.454 528.048,180.12 524,184.5C 521.182,182.388 519.682,179.555 519.5,176C 521.796,162.768 526.63,150.602 534,139.5C 536.881,137.972 539.214,138.638 541,141.5C 541.833,143.167 542.667,144.833 543.5,146.5C 539.607,153.154 536.107,159.821 533,166.5C 539.5,158.667 546.667,151.5 554.5,145C 558.513,142.539 562.013,143.039 565,146.5C 565.667,147.5 565.667,148.5 565,149.5C 559.876,156.415 556.376,164.081 554.5,172.5C 554.865,173.902 555.699,174.902 557,175.5C 558.373,174.485 559.54,174.485 560.5,175.5 Z"/></g>
<g><path style="opacity:0.38" fill="#bebebe" d="M 595.5,142.5 C 596.627,143.122 597.627,143.955 598.5,145C 598.066,147.792 597.066,150.625 595.5,153.5C 596.579,149.801 596.579,146.135 595.5,142.5 Z"/></g>
<g><path style="opacity:0.005" fill="#d5d5d5" d="M 404.5,148.5 C 404.5,149.167 404.833,149.5 405.5,149.5C 404.488,150.872 403.488,152.205 402.5,153.5C 403.052,151.669 403.052,150.003 402.5,148.5C 402.97,147.537 403.637,147.537 404.5,148.5 Z"/></g>
<g><path style="opacity:0.02" fill="#e8e8e8" d="M 405.5,146.5 C 406.167,146.5 406.833,146.5 407.5,146.5C 407.167,147.5 406.5,148.167 405.5,148.5C 405.167,148.5 404.833,148.5 404.5,148.5C 404.833,147.833 405.167,147.167 405.5,146.5 Z"/></g>
<g><path style="opacity:0.058" fill="#e5e5e5" d="M 125.5,151.5 C 124.427,150.749 124.26,149.749 125,148.5C 125.483,149.448 125.649,150.448 125.5,151.5 Z"/></g>
<g><path style="opacity:0.037" fill="#e1e1e1" d="M 588.5,147.5 C 589.167,147.5 589.5,147.833 589.5,148.5C 589.167,149.833 588.833,151.167 588.5,152.5C 587.833,151.5 587.167,150.5 586.5,149.5C 586.833,148.5 587.5,147.833 588.5,147.5 Z"/></g>
<g><path style="opacity:0.063" fill="#e9e9e9" d="M 214.5,152.5 C 213.761,152.631 213.094,152.464 212.5,152C 213.437,151.308 214.103,151.475 214.5,152.5 Z"/></g>
<g><path style="opacity:0.071" fill="#e7e8e7" d="M 214.5,152.5 C 215.167,152.5 215.5,152.833 215.5,153.5C 215.167,153.167 214.833,152.833 214.5,152.5 Z"/></g>
<g><path style="opacity:0.076" fill="#e0e0e0" d="M 504.5,150.5 C 504.167,152.833 502.833,154.167 500.5,154.5C 501.5,152.833 502.833,151.5 504.5,150.5 Z"/></g>
<g><path style="opacity:0.031" fill="#e3e4e3" d="M 401.5,154.5 C 400.833,153.167 400.833,153.167 401.5,154.5 Z"/></g>
<g><path style="opacity:0.008" fill="#dbdbdb" d="M 589.5,153.5 C 590.167,153.5 590.833,153.5 591.5,153.5C 591.5,154.833 592.167,155.5 593.5,155.5C 592.71,156.401 591.71,157.068 590.5,157.5C 590.167,156.167 589.833,154.833 589.5,153.5 Z"/></g>
<g><path style="opacity:0.125" fill="#c1c1c1" d="M 499.5,155.5 C 499.573,157.027 498.906,158.027 497.5,158.5C 497.427,156.973 498.094,155.973 499.5,155.5 Z"/></g>
<g><path style="opacity:0.008" fill="#eeeeee" d="M 586.5,156.5 C 587.5,156.833 588.167,157.5 588.5,158.5C 587.167,158.5 586.5,157.833 586.5,156.5 Z"/></g>
<g><path style="opacity:0.024" fill="#e9eae9" d="M 590.5,157.5 C 589.833,158.167 589.833,158.167 590.5,157.5 Z"/></g>
<g><path style="opacity:0.353" fill="#aeaeae" d="M 585.5,152.5 C 585.833,153.833 586.167,155.167 586.5,156.5C 584.631,158.635 583.964,161.302 584.5,164.5C 583.842,163.207 583.508,161.707 583.5,160C 583.408,157.179 584.074,154.679 585.5,152.5 Z"/></g>
<g><path style="opacity:0.047" fill="#e4e5e4" d="M 588.5,158.5 C 588.833,158.5 589.167,158.5 589.5,158.5C 589.315,159.17 588.981,159.17 588.5,158.5 Z"/></g>
<g><path style="opacity:0.227" fill="#919191" d="M 374.5,163.5 C 374.842,164.338 375.508,164.672 376.5,164.5C 373.811,167.374 373.144,167.041 374.5,163.5 Z"/></g>
<g><path style="opacity:0.998" fill="#3a3a3a" d="M 408.5,180.5 C 409.5,180.5 410.5,180.5 411.5,180.5C 411.5,179.167 411.5,177.833 411.5,176.5C 417.198,175.402 422.365,173.069 427,169.5C 428.23,170.275 428.563,171.275 428,172.5C 423.982,177.34 418.982,180.673 413,182.5C 411.272,182.101 409.772,181.434 408.5,180.5 Z"/></g>
<g><path style="opacity:0.173" fill="#c1c1c1" d="M 560.5,175.5 C 561.167,175.5 561.833,175.5 562.5,175.5C 562.672,176.492 562.338,177.158 561.5,177.5C 561.167,177.5 560.833,177.5 560.5,177.5C 560.5,176.833 560.5,176.167 560.5,175.5 Z"/></g>
<g><path style="opacity:0.408" fill="#8f8f8f" d="M 567.5,182.5 C 568.391,183.11 569.391,183.443 570.5,183.5C 569.053,184.885 568.053,184.552 567.5,182.5 Z"/></g>
</svg>
